<?xml version="1.0" standalone="no"?><!DOCTYPE svg PUBLIC "-//W3C//DTD SVG 1.1//EN" "http://www.w3.org/Graphics/SVG/1.1/DTD/svg11.dtd"><svg t="1600580822730" class="icon" viewBox="0 0 1024 1024" version="1.1" xmlns="http://www.w3.org/2000/svg" p-id="3301" xmlns:xlink="http://www.w3.org/1999/xlink" width="200" height="200"><defs><style type="text/css"></style></defs><path d="M485.434 197v0.805c158.533 9.937 296.12 111.771 412.127 301.995L911 507.601c-1.44 2.482-2.883 4.95-4.33 7.404a980.287 980.287 0 0 1 4.33 7.394l-13.44 7.8C781.556 720.425 643.968 822.26 485.435 832.196V833l-5.264-0.033c-2.562-0.032-5.12-0.088-7.671-0.167-2.549 0.08-5.106 0.135-7.669 0.167l-5.264 0.033v-0.805C301.033 822.258 163.446 720.424 47.439 530.2L34 522.399c1.44-2.482 2.882-4.95 4.329-7.403A1022.104 1022.104 0 0 1 34 507.601l13.44-7.8c116.005-190.225 253.593-292.06 412.126-301.996V197l5.264 0.033c2.563 0.032 5.12 0.088 7.672 0.167 2.549-0.08 5.106-0.135 7.668-0.167l5.264-0.033z m-12.933 60.037l-0.52 0.02c-136.204 5.22-257.19 90.066-363.575 257.936v0.015c106.52 168.083 227.68 252.93 364.094 257.955 136.415-5.025 257.574-89.873 364.094-257.955v-0.015c-106.52-168.083-227.678-252.93-364.093-257.956zM490.2 378.7c76.228 0 138.022 61.784 138.022 138 0 76.215-61.794 138-138.021 138-76.227 0-138.022-61.785-138.022-138 0-76.216 61.795-138 138.022-138z m0 59.8c-43.195 0-78.211 35.011-78.211 78.2 0 43.188 35.016 78.2 78.212 78.2 43.195 0 78.212-35.012 78.212-78.2 0-43.189-35.017-78.2-78.212-78.2z" fill="#333333" p-id="3302"></path></svg>