<?xml version="1.0" standalone="no"?><!DOCTYPE svg PUBLIC "-//W3C//DTD SVG 1.1//EN" "http://www.w3.org/Graphics/SVG/1.1/DTD/svg11.dtd"><svg t="1602738155663" class="icon" viewBox="0 0 1024 1024" version="1.1" xmlns="http://www.w3.org/2000/svg" p-id="4216" xmlns:xlink="http://www.w3.org/1999/xlink" width="200" height="200"><defs><style type="text/css"></style></defs><path d="M448 294.4c-12.8-12.8-32-12.8-44.8 0s-12.8 32 0 44.8L576 512l-172.8 172.8c-12.8 12.8-12.8 32 0 44.8s32 12.8 44.8 0l0 0 192-198.4c12.8-12.8 12.8-32 0-44.8 0 0 0 0 0 0L448 294.4zM486.4 76.8C249.6 76.8 51.2 268.8 51.2 512s198.4 435.2 435.2 435.2 435.2-198.4 435.2-435.2l0 0C928 268.8 729.6 76.8 486.4 76.8zM486.4 883.2c-204.8 0-371.2-166.4-371.2-371.2s166.4-371.2 371.2-371.2 371.2 166.4 371.2 371.2C864 716.8 697.6 883.2 486.4 883.2z" p-id="4217" fill="#707070"></path></svg>