<?xml version="1.0" standalone="no"?><!DOCTYPE svg PUBLIC "-//W3C//DTD SVG 1.1//EN" "http://www.w3.org/Graphics/SVG/1.1/DTD/svg11.dtd"><svg t="1602738136468" class="icon" viewBox="0 0 1024 1024" version="1.1" xmlns="http://www.w3.org/2000/svg" p-id="3338" xmlns:xlink="http://www.w3.org/1999/xlink" width="200" height="200"><defs><style type="text/css"></style></defs><path d="M480 64C214.912 64 0 278.912 0 544 0 809.088 214.912 1024 480 1024c265.088 0 480-214.912 480-480C960 278.912 745.088 64 480 64zM480 960C250.624 960 64 773.376 64 544S250.624 128 480 128 896 314.624 896 544 709.376 960 480 960z" p-id="3339" fill="#707070"></path><path d="M542.528 767.616c-8.192 0-16.384-3.136-22.656-9.344L328.32 566.656c-0.064 0-0.064-0.064-0.064-0.064 0 0 0 0-0.064-0.064 0 0 0 0 0 0 0 0 0 0-0.064-0.064l0 0c0 0 0 0-0.064-0.064l0 0c0 0-0.064-0.064-0.064-0.064s0 0 0 0c0 0 0.448 0 0.448-0.064l0 0C322.624 560.256 320 552.512 320 544.768l0 0c0 0 0-0.064 0-0.064 0 0-0.512 0-0.512 0 0 0-0.256 0-0.256-0.064 0 0 0.384 0 0.384 0 0 0 0.384 0 0.384-0.064 0 0 0 0 0-0.064l-0.512 0c0 0-0.256 0-0.256-0.064 0 0-0.128 0-0.128 0 0 0-0.064 0-0.064-0.064 0 0 0 0 0 0 0 0 0 0 0-0.064l0 0 0 0c0 0 0-0.064 0-0.064 0 0 0 0 0 0 0 0 0-0.064 0-0.064 0 0 0 0 0 0 0 0 0.512-0.064 0.512-0.064l0.512 0c0-0.064 0-0.064 0-0.064 0 0-0.512-0.064-0.512-0.064 0 0-0.256 0-0.256 0 0 0 0.384-0.064 0.384-0.064 0 0 0.384 0 0.384 0 0 0 0-0.064 0-0.064l0 0c0-7.808 2.624-15.488 8.448-21.504l0 0c0 0-0.192-0.064-0.192-0.064 0 0-0.064 0-0.064 0s0 0 0-0.064l0 0c0 0 0 0 0-0.064l0 0c0 0 0.064-0.064 0.064-0.064 0 0 0 0 0 0 0 0 0 0 0.064-0.064 0 0 0 0 0.064-0.064l192.768-192.832c12.48-12.48 32.768-12.48 45.248 0s12.48 32.768 0 45.248L396.224 544.064l168.896 168.96c12.48 12.48 12.48 32.768 0 45.248C558.848 764.48 550.656 767.616 542.528 767.616z" p-id="3340" fill="#707070"></path></svg>