<?xml version="1.0" standalone="no"?><!DOCTYPE svg PUBLIC "-//W3C//DTD SVG 1.1//EN" "http://www.w3.org/Graphics/SVG/1.1/DTD/svg11.dtd"><svg t="1600572072139" class="icon" viewBox="0 0 1024 1024" version="1.1" xmlns="http://www.w3.org/2000/svg" p-id="3543" xmlns:xlink="http://www.w3.org/1999/xlink" width="200" height="200"><defs><style type="text/css"></style></defs><path d="M273.066667 119.466667a153.6 153.6 0 1 0 0 307.2h153.6v-153.6a153.6 153.6 0 0 0-153.6-153.6z m0-68.266667c122.538667 0 221.866667 99.328 221.866666 221.866667v153.6a68.266667 68.266667 0 0 1-68.266666 68.266666h-153.6C150.528 494.933333 51.2 395.605333 51.2 273.066667S150.528 51.2 273.066667 51.2zM273.066667 904.533333a153.6 153.6 0 0 1 0-307.2h153.6v153.6a153.6 153.6 0 0 1-153.6 153.6z m0 68.266667c122.538667 0 221.866667-99.328 221.866666-221.866667v-153.6a68.266667 68.266667 0 0 0-68.266666-68.266666h-153.6C150.528 529.066667 51.2 628.394667 51.2 750.933333s99.328 221.866667 221.866667 221.866667z" fill="#2B2B2B" p-id="3544"></path><path d="M750.933333 119.466667a153.6 153.6 0 0 1 0 307.2h-153.6v-153.6a153.6 153.6 0 0 1 153.6-153.6z m0-68.266667c-122.538667 0-221.866667 99.328-221.866666 221.866667v153.6a68.266667 68.266667 0 0 0 68.266666 68.266666h153.6c122.538667 0 221.866667-99.328 221.866667-221.866666S873.472 51.2 750.933333 51.2z" fill="#D5AC86" p-id="3545"></path><path d="M750.933333 904.533333a153.6 153.6 0 0 0 0-307.2h-153.6v153.6a153.6 153.6 0 0 0 153.6 153.6z m0 68.266667c-122.538667 0-221.866667-99.328-221.866666-221.866667v-153.6a68.266667 68.266667 0 0 1 68.266666-68.266666h153.6c122.538667 0 221.866667 99.328 221.866667 221.866666s-99.328 221.866667-221.866667 221.866667z" fill="#2B2B2B" p-id="3546"></path></svg>